<?xml version="1.0" encoding="utf-8"?>
<!-- Generator: Adobe Illustrator 15.0.0, SVG Export Plug-In . SVG Version: 6.00 Build 0)  -->
<!DOCTYPE svg PUBLIC "-//W3C//DTD SVG 1.1//EN" "http://www.w3.org/Graphics/SVG/1.1/DTD/svg11.dtd">
<svg version="1.1" id="Layer_1" xmlns="http://www.w3.org/2000/svg" xmlns:xlink="http://www.w3.org/1999/xlink" x="0px" y="0px"
	 width="669px" height="148px" viewBox="0 0 669 148" enable-background="new 0 0 669 148" xml:space="preserve">
<g id="Wrm2WJ_1_">
	<g>
		<path fill-rule="evenodd" clip-rule="evenodd" fill="#28B5E9" d="M44.067,12.27c1.571,0,3.142,0,4.712,0
			c10.977,2.008,17.795,8.175,24.505,14.451c6.982-5.898,13.515-12.247,24.19-14.451c1.78,0,3.56,0,5.341,0
			c17.644,3.076,32.412,16.604,30.788,38.014c-0.628,8.275-3.94,14.468-8.482,19.478c-5.55,0-11.101,0-16.65,0
			c-6.622-10.344-11.645-22.284-17.907-32.987c-7.865,16.744-14.706,34.513-22.306,51.522c-6.54-11.157-12.77-23.436-19.164-34.74
			c-3.703,5.414-7.152,11.277-10.996,16.623c-6.807,0-10.257,0.323-15.394-0.418c-2.516-0.363-5.18-6.418-6.283-8.797
			c-1.774-3.826-2.445-7.925-3.142-11.623c0-2.095,0-4.189,0-6.284C16.398,25.65,25.913,14.64,44.067,12.27z"/>
		<path fill-rule="evenodd" clip-rule="evenodd" fill="#54596C" d="M250.157,18.238c6.404-0.925,5.341,6.625,5.341,14.766
			c0,20.575,0,40.539,0,62.204c0,8.792,1.514,20.082-4.398,20.42c-6.869,0.393-5.027-12.157-5.027-20.42c0-22.031,0-42.069,0-63.461
			C246.073,25.108,244.712,19.025,250.157,18.238z"/>
		<path fill-rule="evenodd" clip-rule="evenodd" fill="#54596C" d="M270.577,18.238c3.105-0.37,5.765,1.283,6.598,3.456
			c1.501,3.915-1.024,8.121-4.084,8.796C264.562,32.374,261.654,19.3,270.577,18.238z"/>
		<path fill-rule="evenodd" clip-rule="evenodd" fill="#54596C" d="M355.715,18.238c9.555-0.98,8.107,14.866-1.571,11.938
			C347.806,28.259,348.923,18.935,355.715,18.238z"/>
		<path fill-rule="evenodd" clip-rule="evenodd" fill="#54596C" d="M235.391,39.287c-3.772,5.686-9.084-0.001-11.624-1.885
			c-7.175-5.321-15.004-10.55-28.903-9.425c-13.03,1.055-22.536,8.523-27.96,16.336c-17.583,25.329,0.502,59.354,27.96,61.576
			c11.393,0.922,18.706-1.527,25.761-5.97c3.093-1.947,7.259-9.511,12.566-7.854c7.313,2.284-0.799,10.561-2.827,12.253
			c-10.716,8.942-29.005,14.87-47.438,8.482c-18.421-6.384-34.104-23.6-32.359-49.638c0.827-12.334,6.484-23.344,14.452-31.102
			c6.824-6.644,18.284-13.637,32.987-13.823c14.04-0.178,24.338,5.091,32.359,11.938C232.724,32.191,236.889,34.379,235.391,39.287z
			"/>
		<path fill-rule="evenodd" clip-rule="evenodd" fill="#54596C" d="M379.592,73.217c7.696-7.204,16.543-15.916,25.132-24.505
			c2.097-2.097,5.329-7.239,9.111-7.226c2.771,0.01,4.594,2.242,4.712,4.398c0.252,4.599-8.464,10.663-10.996,13.194
			c-4.449,4.45-8.457,7.738-12.252,11.938c5.366,9.058,12.13,19.554,18.536,29.531c1.527,2.379,5.402,7.331,5.341,10.367
			c-0.055,2.627-2.216,4.712-4.713,4.712c-3.886,0-6.509-5.976-7.854-8.168c-6.167-10.046-12-19.484-17.907-29.217
			c-2.155,0.544-3.075,2.446-4.713,4.084c-1.369,1.369-3.855,2.733-4.397,4.713c-1.918,6.99,4.064,28.094-4.399,28.588
			c-7.483,0.437-5.026-15.242-5.026-24.19c0-20.01,0-38.324,0-58.434c0-6.574-1.225-13.889,3.456-14.766
			c7.219-1.352,5.969,6.884,5.97,13.823C379.592,46.358,379.591,59.657,379.592,73.217z"/>
		<path fill-rule="evenodd" clip-rule="evenodd" fill="#54596C" d="M269.635,41.8c8.327-2.448,6.282,10.094,6.282,18.851
			c0,12.327,0,23.3,0,35.813c0,6.636,1.916,18.849-4.397,19.164c-5.58,0.279-5.027-6.495-5.027-14.451c0-12.98,0-26.154,0-38.327
			C266.493,56.514,264.789,43.226,269.635,41.8z"/>
		<path fill-rule="evenodd" clip-rule="evenodd" fill="#54596C" d="M295.709,47.77c5.985-3.829,11.046-7.156,21.049-6.283
			c14.151,1.233,23.798,13.138,24.505,27.331c0.383,7.687,0,16.578,0,25.762c0,8.363,1.7,20.888-4.712,21.049
			c-7.457,0.188-5.027-14.085-5.027-22.305c0-9.549,1.489-24.71-1.257-31.416c-2.42-5.914-7.256-11.043-16.651-10.996
			c-8.442,0.041-16.836,5.972-17.907,16.336c-0.783,7.593,0,25.249,0,35.814c0,6.45,1.04,14.014-5.969,12.252
			c-4.494-1.129-3.456-9.237-3.456-15.394c0-13.122,0-25.33,0-37.699c0-7.178-1.822-19.667,3.456-20.734
			C293.705,40.684,296.066,42.923,295.709,47.77z"/>
		<path fill-rule="evenodd" clip-rule="evenodd" fill="#54596C" d="M354.772,41.8c8.411-2.333,6.283,10.001,6.283,19.479
			c0,14.219,0,25.015,0,39.584c0,6.593,0.968,14.688-4.712,14.766c-6.392,0.087-4.713-9.99-4.713-17.593c0-10.714,0-25.946,0-36.443
			c0-4.678-1.44-17.98,2.513-19.792C354.315,41.722,354.59,41.851,354.772,41.8z"/>
		<path fill-rule="evenodd" clip-rule="evenodd" fill="#28B5E9" d="M507.98,142.699c-1.041,0.415-2.205,0.567-3.039,0.261
			c-4.517-1.658-3.142-9.713-3.142-16.336c0-21.791,0-41.682,0-63.774c0-7.742-2.062-21.131,4.397-21.363
			c6.335-0.228,4.887,7.03,5.027,11.624c5.312-4.271,11.531-9.168,20.106-10.682c28.565-5.044,49.591,20.237,42.726,46.182
			c-3.471,13.117-15.882,25.546-32.045,26.703c-13.378,0.959-22.238-5.603-28.589-11.31c-0.489-0.44-1.066-2.148-2.198-1.57
			c0,5.403,0,11.703,0,18.221c0,3.776,0.294,7.548,0.337,11.321c0.031,2.682,0.008,6.644-1.371,9.048
			C509.799,141.706,508.942,142.315,507.98,142.699z M512.795,68.19c-4.206,10.548-0.383,22.847,5.969,29.531
			c15.121,15.907,42.642,7.093,46.811-13.195c1.439-7.006,0.706-14.262-3.77-21.049c-4.85-7.354-14.379-13.862-27.646-11.938
			C523.678,53.06,515.793,60.674,512.795,68.19z"/>
		<path fill-rule="evenodd" clip-rule="evenodd" fill="#28B5E9" d="M656.682,74.474c0,2.722,0,5.444,0,8.168
			c-3.656,17.87-16.964,34.618-39.271,32.672c-11.337-0.988-17.906-7.436-24.818-13.509c0,5.601,0,13.056,0,21.05
			c0,3.908,0.28,7.8,0.17,11.71c-0.074,2.6-0.339,7.934-3.821,8.397c-1.299,0.173-2.504,0.356-3.565-0.493
			c-1.212-0.971-1.971-2.384-2.209-3.907c-1.196-7.669,0-16.789,0-25.446c0-17.029,0-33.203,0-50.895
			c0-7.658-2.129-20.894,4.713-20.734c5.918,0.138,4.593,7.077,4.713,11.624c6.39-5.796,15.494-11.311,27.331-11.311
			C641.109,41.8,653.219,56.776,656.682,74.474z M592.593,74.787c-0.958,9.348,2.388,17.558,7.539,22.935
			c15.144,15.804,44.844,6.556,47.124-15.709c1.977-19.295-13.25-33.153-31.73-30.474C603.95,53.219,593.869,62.327,592.593,74.787z
			"/>
		<path fill-rule="evenodd" clip-rule="evenodd" fill="#28B5E9" d="M483.893,102.119c-7.791,6.303-13.855,12.52-26.075,13.194
			c-19.97,1.104-38.328-14.137-38.328-36.442c0-19.818,14.464-35.556,33.93-37.071c8.854-0.688,16.888,1.931,22.305,5.341
			c8.738,5.502,16.746,16.211,17.594,29.846c0.324,5.221,0,14.059,0,21.677c0,8.128,1.067,16.616-4.398,16.965
			C482.49,116.039,484.021,108.6,483.893,102.119z M441.167,55.623c-6.967,4.614-12.799,13.64-12.253,24.505
			c0.339,6.719,2.954,12.262,6.598,16.65c10.238,12.336,32.712,11.975,42.727-1.257c3.177-4.198,5.924-9.523,5.654-18.221
			c-0.167-5.375-1.173-8.767-4.084-13.509c-3.82-6.224-14.148-13.794-26.704-12.253C448.216,52.139,443.773,53.896,441.167,55.623z"
			/>
		<path fill-rule="evenodd" clip-rule="evenodd" fill="#28B5E9" d="M90.563,43.057c5.59,9.489,10.617,19.543,15.708,29.532
			c5.236,0,10.472,0,15.708,0c0.217,1.073-0.969,2.175-1.571,2.827c-9.626,10.431-19.637,21.104-29.845,31.729
			c-5.626,5.856-11.199,16.667-21.024,12.923c-3.758-1.433-6.423-4.811-8.849-7.86c-2.7-3.395-5.609-6.514-8.533-9.715
			c-5.957-6.518-11.861-13.084-17.708-19.701c-1.558-1.763-3.112-3.53-4.66-5.302c-0.614-0.703-3.545-3.821-4.258-4.901
			c2.595,0,9.425,0,14.137,0c3.286-4.046,5.815-8.848,8.797-13.195C55.5,70.686,61.557,82.954,68.572,94.266
			C76.224,77.518,83.167,60.061,90.563,43.057z"/>
	</g>
</g>
</svg>
